name rise36.2859peak64.2979fall75.1499.mot
datacolumns 19
datarows 27
range 2.13165800000000 2.17499100000000
endheader
time	ground_force1_vx	ground_force1_vy	ground_force1_vz	ground_force1_px	ground_force1_py	ground_force1_pz	ground_force2_vx	ground_force2_vy	ground_force2_vz	ground_force2_px	ground_force2_py	ground_force2_pz	ground_torque1_x	ground_torque1_y	ground_torque1_z	ground_torque2_x	ground_torque2_y	ground_torque2_z	
2.13165800000000	65.32718300000001	792.31859199999997	54.69586200000000	0.40003600000000	0.00000000000000	0.08085000000000	0.00000000000000	0.00000000000000	0.00000000000000	0.00000000000000	0.00000000000000	0.00000000000000	0.00000000000000	31.48773600000000	0.00000000000000	0.00000000000000	0.00000000000000	0.00000000000000	
2.13332300000000	64.82872100000000	793.46918300000004	54.76478500000000	0.39908500000000	0.00000000000000	0.08094200000000	0.00000000000000	0.00000000000000	0.00000000000000	0.00000000000000	0.00000000000000	0.00000000000000	0.00000000000000	31.47279400000000	0.00000000000000	0.00000000000000	0.00000000000000	0.00000000000000	
2.13498800000000	64.32186400000001	794.47774600000002	54.82648200000000	0.39814000000000	0.00000000000000	0.08103400000000	0.00000000000000	0.00000000000000	0.00000000000000	0.00000000000000	0.00000000000000	0.00000000000000	0.00000000000000	31.45503000000000	0.00000000000000	0.00000000000000	0.00000000000000	0.00000000000000	
2.13666000000000	63.80649000000000	795.34518400000002	54.88078500000000	0.39720000000000	0.00000000000000	0.08112700000000	0.00000000000000	0.00000000000000	0.00000000000000	0.00000000000000	0.00000000000000	0.00000000000000	0.00000000000000	31.43440500000000	0.00000000000000	0.00000000000000	0.00000000000000	0.00000000000000	
2.13832400000000	63.28245700000000	796.07255899999996	54.92749200000000	0.39626300000000	0.00000000000000	0.08121900000000	0.00000000000000	0.00000000000000	0.00000000000000	0.00000000000000	0.00000000000000	0.00000000000000	0.00000000000000	31.41084200000000	0.00000000000000	0.00000000000000	0.00000000000000	0.00000000000000	
2.13999000000000	62.74961000000000	796.66108999999994	54.96636600000000	0.39532900000000	0.00000000000000	0.08131100000000	0.00000000000000	0.00000000000000	0.00000000000000	0.00000000000000	0.00000000000000	0.00000000000000	0.00000000000000	31.38423800000000	0.00000000000000	0.00000000000000	0.00000000000000	0.00000000000000	
2.14165500000000	62.20778200000000	797.11216700000000	54.99714300000000	0.39439800000000	0.00000000000000	0.08140300000000	0.00000000000000	0.00000000000000	0.00000000000000	0.00000000000000	0.00000000000000	0.00000000000000	0.00000000000000	31.35446100000000	0.00000000000000	0.00000000000000	0.00000000000000	0.00000000000000	
2.14333200000000	61.65680000000000	797.42734599999994	55.01953900000000	0.39346800000000	0.00000000000000	0.08149500000000	0.00000000000000	0.00000000000000	0.00000000000000	0.00000000000000	0.00000000000000	0.00000000000000	0.00000000000000	31.32135500000000	0.00000000000000	0.00000000000000	0.00000000000000	0.00000000000000	
2.14498900000000	61.09649100000000	797.60835999999995	55.03325100000000	0.39253800000000	0.00000000000000	0.08158700000000	0.00000000000000	0.00000000000000	0.00000000000000	0.00000000000000	0.00000000000000	0.00000000000000	0.00000000000000	31.28474800000000	0.00000000000000	0.00000000000000	0.00000000000000	0.00000000000000	
2.14665700000000	60.52668600000000	797.65711799999997	55.03796800000000	0.39160700000000	0.00000000000000	0.08167800000000	0.00000000000000	0.00000000000000	0.00000000000000	0.00000000000000	0.00000000000000	0.00000000000000	0.00000000000000	31.24444900000000	0.00000000000000	0.00000000000000	0.00000000000000	0.00000000000000	
2.14832400000000	59.94722200000000	797.57570799999996	55.03337100000000	0.39067400000000	0.00000000000000	0.08177000000000	0.00000000000000	0.00000000000000	0.00000000000000	0.00000000000000	0.00000000000000	0.00000000000000	0.00000000000000	31.20026100000000	0.00000000000000	0.00000000000000	0.00000000000000	0.00000000000000	
2.14999100000000	59.35795200000000	797.36639600000001	55.01913800000000	0.38973800000000	0.00000000000000	0.08186100000000	0.00000000000000	0.00000000000000	0.00000000000000	0.00000000000000	0.00000000000000	0.00000000000000	0.00000000000000	31.15197500000000	0.00000000000000	0.00000000000000	0.00000000000000	0.00000000000000	
2.15165700000000	58.75874100000000	797.03163099999995	54.99495700000000	0.38879800000000	0.00000000000000	0.08195200000000	0.00000000000000	0.00000000000000	0.00000000000000	0.00000000000000	0.00000000000000	0.00000000000000	0.00000000000000	31.09938100000000	0.00000000000000	0.00000000000000	0.00000000000000	0.00000000000000	
2.15332800000000	58.14947800000000	796.57403799999997	54.96052000000000	0.38785300000000	0.00000000000000	0.08204300000000	0.00000000000000	0.00000000000000	0.00000000000000	0.00000000000000	0.00000000000000	0.00000000000000	0.00000000000000	31.04226900000000	0.00000000000000	0.00000000000000	0.00000000000000	0.00000000000000	
2.15499200000000	57.53007500000000	795.99642300000005	54.91553700000000	0.38690100000000	0.00000000000000	0.08213300000000	0.00000000000000	0.00000000000000	0.00000000000000	0.00000000000000	0.00000000000000	0.00000000000000	0.00000000000000	30.98043200000000	0.00000000000000	0.00000000000000	0.00000000000000	0.00000000000000	
2.15666000000000	56.90047200000000	795.30176400000005	54.85973700000000	0.38594100000000	0.00000000000000	0.08222400000000	0.00000000000000	0.00000000000000	0.00000000000000	0.00000000000000	0.00000000000000	0.00000000000000	0.00000000000000	30.91367300000000	0.00000000000000	0.00000000000000	0.00000000000000	0.00000000000000	
2.15832600000000	56.26063900000000	794.49321299999997	54.79287100000000	0.38497300000000	0.00000000000000	0.08231400000000	0.00000000000000	0.00000000000000	0.00000000000000	0.00000000000000	0.00000000000000	0.00000000000000	0.00000000000000	30.84180400000000	0.00000000000000	0.00000000000000	0.00000000000000	0.00000000000000	
2.15998900000000	55.61058000000000	793.57408899999996	54.71471900000000	0.38399500000000	0.00000000000000	0.08240400000000	0.00000000000000	0.00000000000000	0.00000000000000	0.00000000000000	0.00000000000000	0.00000000000000	0.00000000000000	30.76465100000000	0.00000000000000	0.00000000000000	0.00000000000000	0.00000000000000	
2.16165400000000	54.95033600000000	792.54787199999998	54.62509300000000	0.38300500000000	0.00000000000000	0.08249400000000	0.00000000000000	0.00000000000000	0.00000000000000	0.00000000000000	0.00000000000000	0.00000000000000	0.00000000000000	30.68205600000000	0.00000000000000	0.00000000000000	0.00000000000000	0.00000000000000	
2.16332300000000	54.27998500000000	791.41820199999995	54.52383900000000	0.38200400000000	0.00000000000000	0.08258400000000	0.00000000000000	0.00000000000000	0.00000000000000	0.00000000000000	0.00000000000000	0.00000000000000	0.00000000000000	30.59388400000000	0.00000000000000	0.00000000000000	0.00000000000000	0.00000000000000	
2.16499600000000	53.59964500000000	790.18886699999996	54.41084300000000	0.38098900000000	0.00000000000000	0.08267400000000	0.00000000000000	0.00000000000000	0.00000000000000	0.00000000000000	0.00000000000000	0.00000000000000	0.00000000000000	30.50002000000000	0.00000000000000	0.00000000000000	0.00000000000000	0.00000000000000	
2.16666300000000	52.90947900000000	788.86379799999997	54.28603200000000	0.37996000000000	0.00000000000000	0.08276400000000	0.00000000000000	0.00000000000000	0.00000000000000	0.00000000000000	0.00000000000000	0.00000000000000	0.00000000000000	30.40037300000000	0.00000000000000	0.00000000000000	0.00000000000000	0.00000000000000	
2.16832500000000	52.20968800000000	787.44706299999996	54.14937600000000	0.37891600000000	0.00000000000000	0.08285400000000	0.00000000000000	0.00000000000000	0.00000000000000	0.00000000000000	0.00000000000000	0.00000000000000	0.00000000000000	30.29487900000000	0.00000000000000	0.00000000000000	0.00000000000000	0.00000000000000	
2.16998800000000	51.50052000000000	785.94285500000001	54.00089100000000	0.37785600000000	0.00000000000000	0.08294300000000	0.00000000000000	0.00000000000000	0.00000000000000	0.00000000000000	0.00000000000000	0.00000000000000	0.00000000000000	30.18350300000000	0.00000000000000	0.00000000000000	0.00000000000000	0.00000000000000	
2.17165400000000	50.78226700000000	784.35548600000004	53.84064100000000	0.37677900000000	0.00000000000000	0.08303300000000	0.00000000000000	0.00000000000000	0.00000000000000	0.00000000000000	0.00000000000000	0.00000000000000	0.00000000000000	30.06623900000000	0.00000000000000	0.00000000000000	0.00000000000000	0.00000000000000	
2.17332800000000	50.05526400000000	782.68937500000004	53.66873600000000	0.37568400000000	0.00000000000000	0.08312300000000	0.00000000000000	0.00000000000000	0.00000000000000	0.00000000000000	0.00000000000000	0.00000000000000	0.00000000000000	29.94311200000000	0.00000000000000	0.00000000000000	0.00000000000000	0.00000000000000	
2.17499100000000	49.31989100000000	780.94903899999997	53.48533800000000	0.37457100000000	0.00000000000000	0.08321200000000	0.00000000000000	0.00000000000000	0.00000000000000	0.00000000000000	0.00000000000000	0.00000000000000	0.00000000000000	29.81417700000000	0.00000000000000	0.00000000000000	0.00000000000000	0.00000000000000	
